<?xml version="1.0" standalone="no"?>
<!DOCTYPE svg PUBLIC "-//W3C//DTD SVG 20010904//EN"
 "http://www.w3.org/TR/2001/REC-SVG-20010904/DTD/svg10.dtd">
<svg version="1.0" xmlns="http://www.w3.org/2000/svg"
 width="200.000000pt" height="200.000000pt" viewBox="0 0 200.000000 200.000000"
 preserveAspectRatio="xMidYMid meet">

<g transform="translate(0.000000,200.000000) scale(0.100000,-0.100000)"
fill="#000000" stroke="none">
<path d="M722 1580 c-111 -30 -188 -75 -272 -160 -87 -87 -132 -165 -160 -276
-95 -369 170 -730 550 -751 195 -11 388 74 500 218 32 41 31 41 -30 -16 -101
-93 -250 -155 -375 -155 -136 0 -296 69 -395 169 -262 266 -189 711 145 877
214 106 450 72 625 -90 54 -51 54 -51 22 -10 -59 76 -179 155 -289 190 -81 25
-236 28 -321 4z"/>
<path d="M677 1166 c-46 -17 -64 -32 -83 -67 -34 -67 -3 -147 69 -179 33 -16
65 -20 153 -20 81 0 113 3 116 13 3 6 3 45 0 85 l-4 72 -88 0 c-85 0 -90 -1
-110 -27 l-22 -28 71 -3 c63 -3 71 -5 71 -22 0 -18 -7 -20 -59 -20 -33 0 -71
4 -85 10 -51 19 -59 86 -13 112 12 7 62 15 111 18 86 5 89 6 114 38 l25 32
-114 0 c-69 -1 -129 -6 -152 -14z"/>
<path d="M990 1161 c-5 -11 -10 -74 -10 -140 l0 -121 40 0 39 0 3 80 3 80 90
-81 c76 -67 95 -79 120 -77 l30 3 3 138 3 138 -38 -3 -37 -3 0 -77 c0 -68 -7
-95 -18 -70 -1 4 -39 40 -84 80 -86 76 -123 90 -144 53z"/>
<path d="M1396 1148 l-25 -33 112 -2 c61 -2 122 -5 133 -8 29 -6 37 -31 18
-50 -12 -12 -42 -15 -145 -15 l-129 0 0 -70 0 -70 45 0 c45 0 45 0 45 35 l0
35 83 0 c45 0 99 5 119 10 70 20 101 98 59 152 -27 34 -83 48 -194 48 l-96 0
-25 -32z"/>
<path d="M926 864 c-9 -25 -7 -64 4 -64 5 0 9 18 8 40 -1 44 -3 47 -12 24z"/>
<path d="M731 830 c6 -16 15 -30 19 -30 4 0 13 14 19 30 6 18 6 30 0 30 -5 0
-9 -7 -9 -15 0 -8 -4 -15 -10 -15 -5 0 -10 7 -10 15 0 8 -4 15 -9 15 -6 0 -6
-12 0 -30z"/>
<path d="M830 830 c0 -25 4 -30 23 -29 21 0 21 1 2 9 -13 6 -15 9 -5 9 12 1
13 3 1 10 -11 7 -10 11 5 20 18 10 18 10 -3 11 -19 0 -23 -5 -23 -30z"/>
<path d="M994 845 c-10 -24 4 -45 28 -44 l23 0 -22 9 c-29 12 -30 30 -2 30 11
0 17 5 14 10 -9 15 -35 12 -41 -5z"/>
<path d="M1097 852 c-13 -19 2 -52 23 -52 22 0 37 37 21 53 -8 8 -11 4 -11
-16 0 -35 -18 -35 -22 1 -2 18 -6 23 -11 14z"/>
<path d="M1201 833 c-1 -28 2 -33 22 -32 15 1 17 3 5 6 -9 2 -19 16 -21 31 -4
24 -4 24 -6 -5z"/>
<path d="M1297 853 c-4 -3 -7 -17 -7 -30 0 -18 5 -23 25 -23 14 0 28 7 31 15
11 27 -30 58 -49 38z m33 -29 c0 -8 -7 -14 -15 -14 -15 0 -21 21 -9 33 10 9
24 -2 24 -19z"/>
<path d="M1404 848 c-4 -6 1 -17 10 -24 16 -12 16 -13 -1 -17 -14 -4 -14 -5 5
-6 24 -1 31 24 10 32 -10 4 -10 6 0 6 7 1 10 6 7 11 -8 13 -22 13 -31 -2z"/>
</g>
</svg>
